<svg class="css-ze2te4 css-qd6ojx" viewBox="0 0 125 124.99861187405055"><g transform="translate(-6.944444444444445, -6.944444444444445) scale(1.3888888888888888)" class="css-1e98oqk" fill="#ffffff"><g xmlns="http://www.w3.org/2000/svg"><path d="M22.633,85.712c1.59,1.221,3.264,2.334,5.01,3.336L50,66.69l22.355,22.357c1.748-1.002,3.421-2.115,5.011-3.336L50,58.345   L22.633,85.712z"></path><path d="M14.289,22.634l27.367,27.367L14.289,77.368c1.202,1.566,2.498,3.059,3.892,4.453L50,50.001L18.181,18.182   C16.786,19.575,15.491,21.067,14.289,22.634z"></path><path d="M77.367,14.289c-1.589-1.22-3.264-2.333-5.01-3.334L50,33.311L27.642,10.954c-1.746,1.002-3.42,2.116-5.009,3.335   L50,41.657L77.367,14.289z"></path><path d="M58.344,50.001l27.368-27.368c-1.203-1.566-2.498-3.058-3.893-4.453L50,50.001l31.819,31.82   c1.394-1.395,2.689-2.887,3.893-4.453L58.344,50.001z"></path><path d="M89.047,27.643L66.688,50.001L89.047,72.36C92.827,65.771,95,58.144,95,50.001C95,41.86,92.827,34.231,89.047,27.643z"></path><path d="M66.688,91.726L50,75.034L33.312,91.726h-0.165c5.207,2.105,10.892,3.273,16.853,3.273c5.96,0,11.646-1.168,16.852-3.273   H66.688z"></path><path d="M33.312,50.001L10.954,27.644C7.173,34.231,5,41.86,5,50.001c0,8.143,2.172,15.77,5.954,22.357L33.312,50.001z"></path><path d="M33.312,8.278L50,24.966L66.688,8.278h0.17C61.65,6.171,55.963,5,50,5c-5.964,0-11.649,1.171-16.858,3.277H33.312z"></path></g></g></svg>